HIERARCHY
ROOT __0
{
	OFFSET 0.0 0.0 0.0
	CHANNELS 0
	JOINT Root
	{
		OFFSET 0.000000 0.000000 0.000000
		CHANNELS 6 Xposition Yposition Zposition Xrotation Yrotation Zrotation
		JOINT LegFront0.R
		{
			OFFSET -0.418178 -0.418153 0.176516
			CHANNELS 6 Xposition Yposition Zposition Xrotation Yrotation Zrotation
			JOINT LegFront1.R
			{
				OFFSET -0.323942 0.000000 0.000000
				CHANNELS 3 Xrotation Yrotation Zrotation
				JOINT LegFront2.R
				{
					OFFSET -0.647048 0.000000 -0.000230
					CHANNELS 3 Xrotation Yrotation Zrotation
					End Site
					{
						OFFSET -0.000003 0.000000 -0.916380
					}
				}
			}
		}
		JOINT LegFront0.L
		{
			OFFSET 0.418178 -0.418153 0.176516
			CHANNELS 6 Xposition Yposition Zposition Xrotation Yrotation Zrotation
			JOINT LegFront1.L
			{
				OFFSET 0.323942 0.000000 0.000000
				CHANNELS 3 Xrotation Yrotation Zrotation
				JOINT LegFront2.L
				{
					OFFSET 0.647048 0.000000 -0.000230
					CHANNELS 3 Xrotation Yrotation Zrotation
					End Site
					{
						OFFSET 0.000003 0.000000 -0.916380
					}
				}
			}
		}
		JOINT LegBack0.R
		{
			OFFSET -0.418178 0.418206 0.176516
			CHANNELS 6 Xposition Yposition Zposition Xrotation Yrotation Zrotation
			JOINT LegBack1.R
			{
				OFFSET -0.323942 0.000000 0.000000
				CHANNELS 3 Xrotation Yrotation Zrotation
				JOINT LegBack2.R
				{
					OFFSET -0.647048 0.000000 -0.000230
					CHANNELS 3 Xrotation Yrotation Zrotation
					End Site
					{
						OFFSET -0.000003 0.000000 -0.916380
					}
				}
			}
		}
		JOINT LegBack0.L
		{
			OFFSET 0.418178 0.418206 0.176516
			CHANNELS 6 Xposition Yposition Zposition Xrotation Yrotation Zrotation
			JOINT LegBack1.L
			{
				OFFSET 0.323942 0.000000 0.000000
				CHANNELS 3 Xrotation Yrotation Zrotation
				JOINT LegBack2.L
				{
					OFFSET 0.647048 0.000000 -0.000230
					CHANNELS 3 Xrotation Yrotation Zrotation
					End Site
					{
						OFFSET 0.000003 0.000000 -0.916380
					}
				}
			}
		}
	}
	JOINT LegFrontIK.L
	{
		OFFSET 1.389170 -0.418153 -0.740094
		CHANNELS 6 Xposition Yposition Zposition Xrotation Yrotation Zrotation
		End Site
		{
			OFFSET 0.000000 0.000000 -0.259647
		}
	}
	JOINT LegFrontIK.R
	{
		OFFSET -1.389170 -0.418153 -0.740094
		CHANNELS 6 Xposition Yposition Zposition Xrotation Yrotation Zrotation
		End Site
		{
			OFFSET 0.000000 0.000000 -0.259647
		}
	}
	JOINT LegBackIK.L
	{
		OFFSET 1.389170 0.418206 -0.740094
		CHANNELS 6 Xposition Yposition Zposition Xrotation Yrotation Zrotation
		End Site
		{
			OFFSET 0.000000 0.000000 -0.259647
		}
	}
	JOINT LegBackIK.R
	{
		OFFSET -1.389170 0.418206 -0.740094
		CHANNELS 6 Xposition Yposition Zposition Xrotation Yrotation Zrotation
		End Site
		{
			OFFSET 0.000000 0.000000 -0.259647
		}
	}
}
MOTION
Frames: 10
Frame Time: 0.100000
-0.000000 0.000000 -0.246992 -0.000000 0.000000 -0.000000 -0.418178 -0.418153 0.176516 0.000021 -0.000011 29.415576 0.001301 19.927729 -0.007395 0.000059 -21.266602 0.000011 0.418178 -0.418153 0.176516 0.000021 0.000011 -29.415586 0.001302 -19.935941 0.007398 0.000057 21.277880 -0.000012 -0.418178 0.418206 0.176516 -0.000013 0.000020 -29.405460 0.001302 19.927625 -0.007397 0.000057 -21.268164 0.000011 0.418178 0.418206 0.176516 -0.000013 -0.000020 29.405460 0.001302 -19.927625 0.007397 0.000057 21.268164 -0.000011 1.211687 -0.865491 -0.766286 -0.000000 0.000000 -0.000000 -1.211687 -0.865491 -0.766286 -0.000000 0.000000 -0.000000 1.211687 0.865491 -0.766286 -0.000000 0.000000 -0.000000 -1.211687 0.865491 -0.766286 -0.000000 0.000000 -0.000000 
-0.036062 0.000000 -0.246992 -0.000000 0.000000 -0.000000 -0.418178 -0.418153 0.176516 0.000022 -0.000012 30.568997 0.001284 19.806266 -0.007346 0.000063 -23.128984 0.000013 0.418178 -0.418153 0.176516 0.000020 0.000011 -28.339039 0.001305 -19.953064 0.007403 0.000051 19.315801 -0.000011 -0.418178 0.418206 0.176516 -0.000013 0.000021 -30.559069 0.001286 19.806066 -0.007348 0.000061 -23.130535 0.000015 0.418178 0.418206 0.176516 -0.000012 -0.000019 28.328761 0.001304 -19.945877 0.007404 0.000051 19.307297 -0.000008 1.211687 -0.865491 -0.766286 -0.000000 0.000000 -0.000000 -1.211687 -0.865491 -0.766286 -0.000000 0.000000 -0.000000 1.211687 0.865491 -0.766286 -0.000000 0.000000 -0.000000 -1.211687 0.865491 -0.766286 -0.000000 0.000000 -0.000000 
-0.036062 0.000000 -0.246992 -0.000000 0.000000 -0.000000 -0.418178 -0.418153 0.176516 0.000022 -0.000012 30.568997 0.001284 19.806266 -0.007346 0.000063 -23.128984 0.000013 0.418178 -0.418153 0.176516 0.000020 0.000011 -28.339039 0.001305 -19.953064 0.007403 0.000051 19.315801 -0.000011 -0.418178 0.418206 0.176516 -0.000013 0.000021 -30.559069 0.001286 19.806066 -0.007348 0.000061 -23.130535 0.000015 0.418178 0.418206 0.176516 -0.000012 -0.000019 28.328761 0.001304 -19.945877 0.007404 0.000051 19.307297 -0.000008 1.211687 -0.865491 -0.766286 -0.000000 0.000000 -0.000000 -1.211687 -0.865491 -0.766286 -0.000000 0.000000 -0.000000 1.211687 0.865491 -0.766286 -0.000000 0.000000 -0.000000 -1.211687 0.865491 -0.766286 -0.000000 0.000000 -0.000000 
-0.108186 0.000000 -0.246992 -0.000000 0.000000 -0.000000 -0.418178 -0.418153 0.176516 0.000024 -0.000012 33.137284 0.001211 19.252714 -0.007128 0.000077 -26.555333 0.000017 0.418178 -0.418153 0.176516 0.000033 0.000013 -43.664460 -0.063857 -118.000015 -0.038382 0.000340 65.000001 -0.000209 -0.418178 0.418206 0.176516 -0.000014 0.000023 -33.127828 0.001210 19.252297 -0.007124 0.000075 -26.556863 0.000016 0.418178 0.418206 0.176516 -0.000012 -0.000018 26.379773 0.001267 -19.675302 0.007295 0.000038 15.090832 -0.000006 0.778942 -0.865491 -0.084513 -0.000000 0.000000 -0.000000 -1.211687 -0.865491 -0.766286 -0.000000 0.000000 -0.000000 1.211687 0.865491 -0.766286 -0.000000 0.000000 -0.000000 -1.211687 0.865491 -0.766286 -0.000000 0.000000 -0.000000 
-0.108186 0.000000 -0.246992 -0.000000 0.000000 -0.000000 -0.418178 -0.418153 0.176516 0.000024 -0.000012 33.137284 0.001211 19.252714 -0.007128 0.000077 -26.555333 0.000017 0.418178 -0.418153 0.176516 0.000033 0.000013 -43.664460 -0.063857 -118.000015 -0.038382 0.000340 65.000001 -0.000209 -0.418178 0.418206 0.176516 -0.000014 0.000023 -33.127828 0.001210 19.252297 -0.007124 0.000075 -26.556863 0.000016 0.418178 0.418206 0.176516 -0.000012 -0.000018 26.379773 0.001267 -19.675302 0.007295 0.000038 15.090832 -0.000006 0.778942 -0.865491 -0.084513 -0.000000 0.000000 -0.000000 -1.211687 -0.865491 -0.766286 -0.000000 0.000000 -0.000000 1.211687 0.865491 -0.766286 -0.000000 0.000000 -0.000000 -1.211687 0.865491 -0.766286 -0.000000 0.000000 -0.000000 
-0.180311 0.000000 -0.246992 -0.000000 0.000000 -0.000000 -0.418178 -0.418153 0.176516 0.000026 -0.000012 36.114154 0.001085 18.290640 -0.006737 0.000085 -29.576898 0.000021 0.418178 -0.418153 0.176516 0.000058 0.000005 -76.387866 0.000113 -6.002332 0.002144 0.000128 39.609698 -0.000045 -0.418178 0.418206 0.176516 -0.000014 0.000025 -36.105285 0.001088 18.289966 -0.006745 0.000085 -29.578380 0.000026 0.418178 0.418206 0.176516 -0.000011 -0.000016 24.665837 0.001177 -19.000756 0.007025 0.000024 10.477572 -0.000001 0.346196 -0.865491 -0.766286 -0.000000 0.000000 -0.000000 -1.211687 -0.865491 -0.766286 -0.000000 0.000000 -0.000000 1.211687 0.865491 -0.766286 -0.000000 0.000000 -0.000000 -1.211687 0.865491 -0.766286 -0.000000 0.000000 -0.000000 
-0.180311 0.000000 -0.246992 -0.000000 0.000000 -0.000000 -0.418178 -0.418153 0.176516 0.000026 -0.000012 36.114154 0.001085 18.290640 -0.006737 0.000085 -29.576898 0.000021 0.418178 -0.418153 0.176516 0.000058 0.000005 -76.387866 0.000113 -6.002332 0.002144 0.000128 39.609698 -0.000045 -0.418178 0.418206 0.176516 -0.000014 0.000025 -36.105285 0.001088 18.289966 -0.006745 0.000085 -29.578380 0.000026 0.418178 0.418206 0.176516 -0.000011 -0.000016 24.665837 0.001177 -19.000756 0.007025 0.000024 10.477572 -0.000001 0.346196 -0.865491 -0.766286 -0.000000 0.000000 -0.000000 -1.211687 -0.865491 -0.766286 -0.000000 0.000000 -0.000000 1.211687 0.865491 -0.766286 -0.000000 0.000000 -0.000000 -1.211687 0.865491 -0.766286 -0.000000 0.000000 -0.000000 
-0.252435 0.000000 -0.246992 -0.000000 0.000000 -0.000000 -0.418178 -0.418153 0.176516 0.000029 -0.000013 39.584973 0.000928 16.942011 -0.006215 0.000094 -32.185016 0.000025 0.418178 -0.418153 0.176516 0.000052 0.000008 -68.032079 0.000170 -7.370594 0.002638 0.000124 39.202540 -0.000044 -0.418178 0.418206 0.176516 -0.000015 0.000028 -39.576776 0.000928 16.941022 -0.006217 0.000096 -32.186443 0.000027 0.418178 0.418206 0.176516 -0.000011 -0.000015 23.149468 0.001043 -17.926547 0.006598 0.000010 5.453614 -0.000000 0.346196 -0.865491 -0.766286 -0.000000 0.000000 -0.000000 -1.211687 -0.865491 -0.766286 -0.000000 0.000000 -0.000000 1.211687 0.865491 -0.766286 -0.000000 0.000000 -0.000000 -1.211687 0.865491 -0.766286 -0.000000 0.000000 -0.000000 
-0.252435 0.000000 -0.246992 -0.000000 0.000000 -0.000000 -0.418178 -0.418153 0.176516 0.000029 -0.000013 39.584973 0.000928 16.942011 -0.006215 0.000094 -32.185016 0.000025 0.418178 -0.418153 0.176516 0.000052 0.000008 -68.032079 0.000170 -7.370594 0.002638 0.000124 39.202540 -0.000044 -0.418178 0.418206 0.176516 -0.000015 0.000028 -39.576776 0.000928 16.941022 -0.006217 0.000096 -32.186443 0.000027 0.418178 0.418206 0.176516 -0.000011 -0.000015 23.149468 0.001043 -17.926547 0.006598 0.000010 5.453614 -0.000000 0.346196 -0.865491 -0.766286 -0.000000 0.000000 -0.000000 -1.211687 -0.865491 -0.766286 -0.000000 0.000000 -0.000000 1.211687 0.865491 -0.766286 -0.000000 0.000000 -0.000000 -1.211687 0.865491 -0.766286 -0.000000 0.000000 -0.000000 
-0.324559 0.000000 -0.246992 -0.000000 0.000000 -0.000000 -0.418178 -0.418153 0.176516 0.000019 -0.000011 26.399455 0.163659 83.635018 -0.182919 0.000137 -41.846906 0.000049 0.418178 -0.418153 0.176516 0.000046 0.000010 -60.551020 0.000267 -9.184415 0.003298 0.000122 38.525286 -0.000042 -0.418178 0.418206 0.176516 -0.000015 0.000031 -43.643416 0.000747 15.252805 -0.005564 0.000103 -34.375796 0.000034 0.418178 0.418206 0.176516 -0.000010 -0.000014 21.800208 0.000873 -16.450533 0.006023 -0.000004 -0.009119 0.000002 0.346196 -0.865491 -0.766286 -0.000000 0.000000 -0.000000 -1.644432 -0.865491 -0.110705 -0.000000 0.000000 -0.000000 1.211687 0.865491 -0.766286 -0.000000 0.000000 -0.000000 -1.211687 0.865491 -0.766286 -0.000000 0.000000 -0.000000 
